<?xml version="1.0" encoding="UTF-8"?>
<svg width="521" height="62" xmlns="http://www.w3.org/2000/svg">
 <path d="m521 62h-521v-62h521zm-497.92-31.98c5.55 15.9 7.01 18.45 13.52 23.54 4.4 3.44 4.4 3.44 224.43 3.19 220.02-0.25 220.02-0.25 225.55-4.75 5.52-4.5 5.52-4.5 11.06-20.39 4.84-13.87 6.13-16.54 14.86-26.26l-504.87 0.15 5.2 5.02c4.86 4.71 5.52 5.96 10.25 19.5" fill="rgba(0,0,0,0)"/>
 <path d="m23.08 30.02c-4.73-13.54-5.39-14.79-10.25-19.5l-5.2-5.02 504.87-0.15c-8.73 9.72-10.02 12.39-14.86 26.26-5.54 15.89-5.54 15.89-11.06 20.39-5.53 4.5-5.53 4.5-225.55 4.75-220.03 0.25-220.03 0.25-224.43-3.19-6.51-5.09-7.97-7.64-13.52-23.54" fill="rgba(252,252,252,0.988235)"/>
</svg>
